<svg xmlns="http://www.w3.org/2000/svg" xmlns:xlink="http://www.w3.org/1999/xlink" width="1440" viewBox="0 0 1440 810" height="810" version="1.0"><defs><clipPath id="d"><path d="M 0.242188 0 L 84.648438 0 L 84.648438 810 L 0.242188 810 Z M 0.242188 0"/></clipPath><clipPath id="c"><path d="M0 0H85V810H0z"/></clipPath><clipPath id="g"><path d="M 0.496094 0 L 84.902344 0 L 84.902344 810 L 0.496094 810 Z M 0.496094 0"/></clipPath><clipPath id="f"><path d="M0 0H85V810H0z"/></clipPath><clipPath id="j"><path d="M 0.746094 0 L 85.15625 0 L 85.15625 810 L 0.746094 810 Z M 0.746094 0"/></clipPath><clipPath id="i"><path d="M0 0H86V810H0z"/></clipPath><clipPath id="k"><path d="M 0 0 L 467.1875 0 L 467.1875 810 L 0 810 Z M 0 0"/></clipPath><mask id="b"><g filter="url(#a)"><path fill-opacity=".698" d="M-144 -81H1584V891H-144z"/></g></mask><mask id="e"><g filter="url(#a)"><path fill-opacity=".4" d="M-144 -81H1584V891H-144z"/></g></mask><mask id="h"><g filter="url(#a)"><path fill-opacity=".098" d="M-144 -81H1584V891H-144z"/></g></mask><filter x="0%" y="0%" width="100%" xmlns:xlink="http://www.w3.org/1999/xlink" xlink:type="simple" xlink:actuate="onLoad" height="100%" id="a" xlink:show="other"><feColorMatrix values="0 0 0 0 1 0 0 0 0 1 0 0 0 0 1 0 0 0 1 0" color-interpolation-filters="sRGB"/></filter></defs><path fill="#FFF" d="M-144 -81H1584V891H-144z"/><path fill="#FFF" d="M-144 -81H1584V891H-144z"/><path fill="#FFEFD6" d="M-144 -81H1584V891H-144z"/><g mask="url(#b)"><g><g clip-path="url(#c)" transform="translate(467)"><g clip-path="url(#d)"><path fill="#69A9B2" d="M 0.242188 -131.898438 L 84.648438 -131.898438 L 84.648438 941.949219 L 0.242188 941.949219 Z M 0.242188 -131.898438"/></g></g></g></g><g mask="url(#e)"><g><g clip-path="url(#f)" transform="translate(551)"><g clip-path="url(#g)"><path fill="#69A9B2" d="M 0.496094 -131.898438 L 84.902344 -131.898438 L 84.902344 941.949219 L 0.496094 941.949219 Z M 0.496094 -131.898438"/></g></g></g></g><g mask="url(#h)"><g><g clip-path="url(#i)" transform="translate(635)"><g clip-path="url(#j)"><path fill="#69A9B2" d="M 0.746094 -131.898438 L 85.15625 -131.898438 L 85.15625 941.949219 L 0.746094 941.949219 Z M 0.746094 -131.898438"/></g></g></g></g><g clip-path="url(#k)"><path fill="#69A9B2" d="M -21.4375 -104.261719 L 467.1875 -104.261719 L 467.1875 908.628906 L -21.4375 908.628906 Z M -21.4375 -104.261719"/></g></svg>