<svg xmlns="http://www.w3.org/2000/svg" xmlns:xlink="http://www.w3.org/1999/xlink" width="1440" viewBox="0 0 1440 810" height="810" version="1.0"><defs><clipPath id="b"><path d="M 0 0 L 216.75 0 L 216.75 810 L 0 810 Z M 0 0"/></clipPath><clipPath id="e"><path d="M 0.75 0 L 68.25 0 L 68.25 810 L 0.75 810 Z M 0.75 0"/></clipPath><clipPath id="d"><path d="M0 0H69V810H0z"/></clipPath><clipPath id="h"><path d="M 1.125 0 L 68.625 0 L 68.625 810 L 1.125 810 Z M 1.125 0"/></clipPath><clipPath id="g"><path d="M0 0H69V810H0z"/></clipPath><clipPath id="k"><path d="M 0.503906 0 L 68.003906 0 L 68.003906 810 L 0.503906 810 Z M 0.503906 0"/></clipPath><clipPath id="j"><path d="M0 0H69V810H0z"/></clipPath><mask id="c"><g filter="url(#a)"><path fill-opacity=".698" d="M-144 -81H1584V891H-144z"/></g></mask><mask id="f"><g filter="url(#a)"><path fill-opacity=".4" d="M-144 -81H1584V891H-144z"/></g></mask><mask id="i"><g filter="url(#a)"><path fill-opacity=".098" d="M-144 -81H1584V891H-144z"/></g></mask><filter x="0%" y="0%" width="100%" xmlns:xlink="http://www.w3.org/1999/xlink" xlink:type="simple" xlink:actuate="onLoad" height="100%" id="a" xlink:show="other"><feColorMatrix values="0 0 0 0 1 0 0 0 0 1 0 0 0 0 1 0 0 0 1 0" color-interpolation-filters="sRGB"/></filter></defs><path fill="#FFF" d="M-144 -81H1584V891H-144z"/><path fill="#FFF" d="M-144 -81H1584V891H-144z"/><path fill="#FFEFD6" d="M-144 -81H1584V891H-144z"/><g clip-path="url(#b)"><path fill="#69A9B2" d="M 0 0 L 216.75 0 L 216.75 810 L 0 810 Z M 0 0"/></g><g mask="url(#c)"><g><g clip-path="url(#d)" transform="translate(216)"><g clip-path="url(#e)"><path fill="#69A9B2" d="M 0.75 -24.355469 L 68.25 -24.355469 L 68.25 834.394531 L 0.75 834.394531 Z M 0.75 -24.355469"/></g></g></g></g><g mask="url(#f)"><g><g clip-path="url(#g)" transform="translate(283)"><g clip-path="url(#h)"><path fill="#69A9B2" d="M 1.125 -24.355469 L 68.625 -24.355469 L 68.625 834.394531 L 1.125 834.394531 Z M 1.125 -24.355469"/></g></g></g></g><g mask="url(#i)"><g><g clip-path="url(#j)" transform="translate(351)"><g clip-path="url(#k)"><path fill="#69A9B2" d="M 0.503906 -24.355469 L 68.003906 -24.355469 L 68.003906 834.394531 L 0.503906 834.394531 Z M 0.503906 -24.355469"/></g></g></g></g></svg>