<svg xmlns="http://www.w3.org/2000/svg" xmlns:xlink="http://www.w3.org/1999/xlink" width="1440" viewBox="0 0 1440 810" height="810" version="1.0"><defs><clipPath id="b"><path d="M 0 0 L 1296 0 L 1296 810 L 0 810 Z M 0 0"/></clipPath><clipPath id="c"><path d="M 871.976562 -736.238281 L 1295.960938 -110.320312 L -83.792969 824.292969 L -507.773438 198.375 Z M 871.976562 -736.238281"/></clipPath><clipPath id="f"><path d="M 0 0 L 1335.121094 0 L 1335.121094 810 L 0 810 Z M 0 0"/></clipPath><clipPath id="g"><path d="M 1297.226562 -111.304688 L 1335.082031 -55.417969 L 22.390625 833.769531 L -15.464844 777.882812 Z M 1297.226562 -111.304688"/></clipPath><clipPath id="e"><path d="M0 0H1336V810H0z"/></clipPath><clipPath id="j"><path d="M 0.398438 0 L 1426 0 L 1426 810 L 0.398438 810 Z M 0.398438 0"/></clipPath><clipPath id="k"><path d="M 1403.363281 -111.304688 L 1441.21875 -55.417969 L 38.488281 894.757812 L 0.632812 838.871094 Z M 1403.363281 -111.304688"/></clipPath><clipPath id="i"><path d="M0 0H1426V810H0z"/></clipPath><mask id="d"><g filter="url(#a)"><path fill-opacity=".4" d="M-144 -81H1584V891H-144z"/></g></mask><mask id="h"><g filter="url(#a)"><path fill-opacity=".098" d="M-144 -81H1584V891H-144z"/></g></mask><filter x="0%" y="0%" width="100%" xmlns:xlink="http://www.w3.org/1999/xlink" xlink:type="simple" xlink:actuate="onLoad" height="100%" id="a" xlink:show="other"><feColorMatrix values="0 0 0 0 1 0 0 0 0 1 0 0 0 0 1 0 0 0 1 0" color-interpolation-filters="sRGB"/></filter></defs><path fill="#FFF" d="M-144 -81H1584V891H-144z"/><path fill="#FFF" d="M-144 -81H1584V891H-144z"/><path fill="#FFEFD6" d="M-144 -81H1584V891H-144z"/><g clip-path="url(#b)"><g clip-path="url(#c)"><path fill="#69A9B2" d="M 871.976562 -736.238281 L 1295.960938 -110.320312 L -83.792969 824.292969 L -507.773438 198.375 Z M 871.976562 -736.238281"/></g></g><g mask="url(#d)"><g><g clip-path="url(#e)"><g clip-path="url(#f)"><g clip-path="url(#g)"><path fill="#69A9B2" d="M 1297.226562 -111.304688 L 1335.082031 -55.417969 L 22.390625 833.769531 L -15.464844 777.882812 Z M 1297.226562 -111.304688"/></g></g></g></g></g><g mask="url(#h)"><g><g clip-path="url(#i)" transform="translate(14)"><g clip-path="url(#j)"><g clip-path="url(#k)"><path fill="#69A9B2" d="M 1403.363281 -111.304688 L 1441.21875 -55.417969 L 38.488281 894.757812 L 0.632812 838.871094 Z M 1403.363281 -111.304688"/></g></g></g></g></g></svg>