<svg xmlns="http://www.w3.org/2000/svg" xmlns:xlink="http://www.w3.org/1999/xlink" width="1440" viewBox="0 0 1440 810" height="810" version="1.0"><defs><clipPath id="d"><path d="M 0 0.980469 L 1440 0.980469 L 1440 132.851562 L 0 132.851562 Z M 0 0.980469"/></clipPath><clipPath id="c"><path d="M0 0H1440V133H0z"/></clipPath><clipPath id="g"><path d="M 0 0.609375 L 1440 0.609375 L 1440 132.480469 L 0 132.480469 Z M 0 0.609375"/></clipPath><clipPath id="f"><path d="M0 0H1440V133H0z"/></clipPath><clipPath id="j"><path d="M 0 0.238281 L 1440 0.238281 L 1440 132.109375 L 0 132.109375 Z M 0 0.238281"/></clipPath><clipPath id="i"><path d="M0 0H1440V133H0z"/></clipPath><clipPath id="k"><path d="M 0 0 L 1440 0 L 1440 50.890625 L 0 50.890625 Z M 0 0"/></clipPath><mask id="b"><g filter="url(#a)"><path fill-opacity=".698" d="M-144 -81H1584V891H-144z"/></g></mask><mask id="e"><g filter="url(#a)"><path fill-opacity=".4" d="M-144 -81H1584V891H-144z"/></g></mask><mask id="h"><g filter="url(#a)"><path fill-opacity=".098" d="M-144 -81H1584V891H-144z"/></g></mask><filter x="0%" y="0%" width="100%" xmlns:xlink="http://www.w3.org/1999/xlink" xlink:type="simple" xlink:actuate="onLoad" height="100%" id="a" xlink:show="other"><feColorMatrix values="0 0 0 0 1 0 0 0 0 1 0 0 0 0 1 0 0 0 1 0" color-interpolation-filters="sRGB"/></filter></defs><path fill="#FFF" d="M-144 -81H1584V891H-144z"/><path fill="#FFF" d="M-144 -81H1584V891H-144z"/><path fill="#FFEFD6" d="M-144 -81H1584V891H-144z"/><g mask="url(#b)"><g><g clip-path="url(#c)" transform="translate(0 50)"><g clip-path="url(#d)"><path fill="#69A9B2" d="M 1558.800781 0.980469 L 1558.800781 132.851562 L -118.890625 132.851562 L -118.890625 0.980469 Z M 1558.800781 0.980469"/></g></g></g></g><g mask="url(#e)"><g><g clip-path="url(#f)" transform="translate(0 182)"><g clip-path="url(#g)"><path fill="#69A9B2" d="M 1558.800781 0.609375 L 1558.800781 132.480469 L -118.890625 132.480469 L -118.890625 0.609375 Z M 1558.800781 0.609375"/></g></g></g></g><g mask="url(#h)"><g><g clip-path="url(#i)" transform="translate(0 314)"><g clip-path="url(#j)"><path fill="#69A9B2" d="M 1558.800781 0.238281 L 1558.800781 132.109375 L -118.890625 132.109375 L -118.890625 0.238281 Z M 1558.800781 0.238281"/></g></g></g></g><g clip-path="url(#k)"><path fill="#69A9B2" d="M 1515.621094 -712.496094 L 1515.621094 50.890625 L -66.828125 50.890625 L -66.828125 -712.496094 Z M 1515.621094 -712.496094"/></g></svg>